<svg xmlns="http://www.w3.org/2000/svg" xmlns:xlink="http://www.w3.org/1999/xlink" width="500" zoomAndPan="magnify" viewBox="0 0 375 374.999991" height="500" preserveAspectRatio="xMidYMid meet" version="1.0"><defs><clipPath id="db4af5b54a"><path d="M 31.671875 264 L 82 264 L 82 304 L 31.671875 304 Z M 31.671875 264 " clip-rule="nonzero"/></clipPath><clipPath id="1356076553"><path d="M 293 266 L 343.671875 266 L 343.671875 305 L 293 305 Z M 293 266 " clip-rule="nonzero"/></clipPath><clipPath id="b977372f63"><path d="M 180 222.644531 L 195 222.644531 L 195 257.144531 L 180 257.144531 Z M 180 222.644531 " clip-rule="nonzero"/></clipPath></defs><rect x="-37.5" width="450" fill="#ffffff" y="-37.499999" height="449.999989" fill-opacity="1"/><rect x="-37.5" width="450" fill="#d9d9d9" y="-37.499999" height="449.999989" fill-opacity="1"/><path fill="#7f7f7f" d="M 181.957031 74.207031 C 162.898438 70.558594 144.710938 86.617188 135.183594 95.109375 C 128.964844 100.671875 123.53125 106.910156 118.875 113.832031 C 114.21875 120.753906 110.492188 128.140625 107.6875 135.992188 C 104.351562 140.480469 100.320312 144.21875 95.597656 147.207031 C 90.96875 150.148438 88.355469 150.527344 83.945312 153.46875 C 82.257812 154.605469 80.683594 155.882812 79.230469 157.304688 C 77.773438 158.726562 76.457031 160.265625 75.28125 161.925781 C 74.101562 163.585938 73.085938 165.339844 72.226562 167.183594 C 71.367188 169.027344 70.683594 170.933594 70.167969 172.902344 L 43.378906 276.335938 C 43.242188 276.914062 43.132812 277.5 43.0625 278.09375 C 42.988281 278.6875 42.949219 279.28125 42.941406 279.878906 C 42.9375 280.472656 42.964844 281.070312 43.023438 281.664062 C 43.085938 282.257812 43.179688 282.847656 43.308594 283.429688 C 43.4375 284.011719 43.597656 284.585938 43.789062 285.152344 C 43.984375 285.714844 44.207031 286.269531 44.460938 286.808594 C 44.71875 287.347656 45.003906 287.871094 45.316406 288.378906 C 45.632812 288.886719 45.972656 289.375 46.34375 289.84375 C 46.710938 290.3125 47.105469 290.757812 47.527344 291.183594 C 47.949219 291.605469 48.390625 292.003906 48.855469 292.378906 C 49.320312 292.753906 49.804688 293.101562 50.308594 293.421875 C 50.816406 293.738281 51.335938 294.027344 51.871094 294.289062 C 52.410156 294.550781 52.960938 294.78125 53.523438 294.976562 C 54.085938 295.175781 54.660156 295.34375 55.242188 295.476562 C 55.824219 295.609375 56.410156 295.710938 57.003906 295.777344 C 57.597656 295.84375 58.191406 295.878906 58.789062 295.878906 L 324.398438 295.878906 C 324.996094 295.882812 325.59375 295.851562 326.191406 295.789062 C 326.785156 295.726562 327.375 295.628906 327.960938 295.5 C 328.546875 295.371094 329.121094 295.207031 329.6875 295.011719 C 330.253906 294.816406 330.804688 294.585938 331.347656 294.328125 C 331.886719 294.070312 332.410156 293.78125 332.917969 293.460938 C 333.425781 293.144531 333.914062 292.796875 334.382812 292.425781 C 334.847656 292.050781 335.292969 291.652344 335.71875 291.226562 C 336.140625 290.800781 336.535156 290.355469 336.910156 289.886719 C 337.28125 289.414062 337.625 288.925781 337.941406 288.417969 C 338.257812 287.910156 338.542969 287.382812 338.796875 286.84375 C 339.054688 286.300781 339.277344 285.746094 339.472656 285.179688 C 339.664062 284.613281 339.824219 284.035156 339.953125 283.453125 C 340.082031 282.867188 340.175781 282.277344 340.234375 281.679688 C 340.296875 281.082031 340.320312 280.488281 340.3125 279.886719 C 340.304688 279.289062 340.265625 278.691406 340.1875 278.097656 C 340.113281 277.503906 340.003906 276.914062 339.863281 276.335938 L 315.902344 203.878906 C 309.769531 185.066406 301.675781 167.136719 291.617188 150.09375 L 291.617188 149.710938 C 285.300781 139.152344 284.160156 138.117188 281.273438 132.238281 C 272.234375 113.730469 274.792969 106.109375 268.804688 97.667969 C 263.957031 91.246094 254.101562 84.167969 230.960938 83.570312 C 222.308594 84.792969 213.703125 84.5 205.152344 82.699219 C 192.847656 79.976562 190.179688 75.785156 181.957031 74.207031 Z M 181.957031 74.207031 " fill-opacity="1" fill-rule="nonzero"/><path fill="#606060" d="M 119.71875 295.878906 C 101.53125 230.550781 108.558594 209.320312 118.902344 202.136719 C 128.050781 195.765625 139.210938 201.480469 157.996094 191.25 C 174.0625 182.59375 172.589844 174.917969 186.3125 167.949219 C 204.28125 158.859375 231.558594 159.402344 245.390625 173.773438 C 250.453125 179.21875 254.863281 186.949219 255.191406 214.382812 C 255.515625 242.023438 252.285156 269.242188 245.5 296.039062 Z M 119.71875 295.878906 " fill-opacity="1" fill-rule="nonzero"/><g clip-path="url(#db4af5b54a)"><path fill="#a0a0a0" d="M 67.609375 303.554688 L 45.285156 303.554688 C 44.378906 303.554688 43.476562 303.464844 42.585938 303.289062 C 41.695312 303.109375 40.832031 302.847656 39.992188 302.5 C 39.152344 302.152344 38.355469 301.726562 37.601562 301.222656 C 36.847656 300.71875 36.148438 300.144531 35.507812 299.503906 C 34.863281 298.859375 34.289062 298.164062 33.785156 297.40625 C 33.28125 296.652344 32.855469 295.855469 32.507812 295.015625 C 32.160156 294.179688 31.898438 293.3125 31.722656 292.421875 C 31.542969 291.53125 31.457031 290.632812 31.457031 289.726562 C 31.453125 288.914062 31.488281 288.105469 31.5625 287.296875 C 31.640625 286.488281 31.757812 285.683594 31.910156 284.890625 C 32.066406 284.09375 32.261719 283.304688 32.492188 282.527344 C 32.726562 281.75 32.996094 280.984375 33.304688 280.234375 C 33.613281 279.484375 33.957031 278.75 34.339844 278.03125 C 34.71875 277.316406 35.132812 276.617188 35.582031 275.941406 C 36.03125 275.265625 36.515625 274.613281 37.027344 273.984375 C 37.542969 273.355469 38.085938 272.753906 38.65625 272.179688 C 39.230469 271.605469 39.828125 271.058594 40.457031 270.542969 C 41.082031 270.027344 41.734375 269.542969 42.40625 269.089844 C 43.082031 268.636719 43.777344 268.21875 44.492188 267.835938 C 45.207031 267.453125 45.941406 267.105469 46.691406 266.792969 C 47.441406 266.484375 48.203125 266.207031 48.980469 265.972656 C 49.757812 265.734375 50.542969 265.539062 51.339844 265.378906 C 52.136719 265.222656 52.9375 265.101562 53.746094 265.023438 C 54.554688 264.941406 55.363281 264.902344 56.175781 264.902344 L 56.71875 264.902344 C 57.527344 264.902344 58.335938 264.941406 59.140625 265.019531 C 59.945312 265.101562 60.746094 265.21875 61.539062 265.378906 C 62.332031 265.535156 63.117188 265.730469 63.890625 265.96875 C 64.664062 266.203125 65.425781 266.476562 66.171875 266.785156 C 66.917969 267.09375 67.648438 267.441406 68.363281 267.820312 C 69.074219 268.203125 69.769531 268.621094 70.441406 269.070312 C 71.113281 269.519531 71.761719 270 72.386719 270.515625 C 73.011719 271.027344 73.609375 271.570312 74.179688 272.144531 C 74.753906 272.71875 75.292969 273.316406 75.808594 273.941406 C 76.320312 274.566406 76.800781 275.21875 77.25 275.890625 C 77.695312 276.5625 78.109375 277.257812 78.492188 277.972656 C 78.871094 278.683594 79.214844 279.414062 79.523438 280.164062 C 79.832031 280.910156 80.105469 281.671875 80.335938 282.445312 C 80.570312 283.222656 80.765625 284.003906 80.921875 284.796875 C 81.078125 285.59375 81.195312 286.390625 81.273438 287.195312 C 81.351562 288 81.386719 288.808594 81.386719 289.617188 C 81.394531 290.527344 81.3125 291.429688 81.140625 292.324219 C 80.96875 293.21875 80.710938 294.085938 80.371094 294.929688 C 80.027344 295.773438 79.605469 296.574219 79.105469 297.335938 C 78.605469 298.09375 78.035156 298.796875 77.394531 299.445312 C 76.753906 300.09375 76.054688 300.671875 75.300781 301.179688 C 74.546875 301.691406 73.75 302.121094 72.910156 302.472656 C 72.070312 302.828125 71.207031 303.09375 70.3125 303.273438 C 69.421875 303.457031 68.519531 303.550781 67.609375 303.554688 Z M 67.609375 303.554688 " fill-opacity="1" fill-rule="nonzero"/></g><path fill="#a0a0a0" d="M 117.542969 303.554688 L 95.214844 303.554688 C 94.308594 303.554688 93.410156 303.464844 92.519531 303.289062 C 91.628906 303.109375 90.761719 302.847656 89.925781 302.5 C 89.085938 302.152344 88.289062 301.726562 87.53125 301.222656 C 86.777344 300.71875 86.078125 300.144531 85.4375 299.503906 C 84.796875 298.859375 84.222656 298.164062 83.71875 297.40625 C 83.210938 296.652344 82.785156 295.855469 82.4375 295.015625 C 82.089844 294.179688 81.828125 293.3125 81.652344 292.421875 C 81.476562 291.53125 81.386719 290.632812 81.386719 289.726562 C 81.386719 288.917969 81.425781 288.109375 81.503906 287.304688 C 81.585938 286.496094 81.703125 285.699219 81.859375 284.902344 C 82.019531 284.109375 82.214844 283.324219 82.449219 282.550781 C 82.6875 281.777344 82.957031 281.015625 83.269531 280.269531 C 83.578125 279.519531 83.921875 278.789062 84.304688 278.074219 C 84.6875 277.363281 85.101562 276.667969 85.550781 275.996094 C 86.003906 275.320312 86.484375 274.671875 86.996094 274.046875 C 87.511719 273.421875 88.054688 272.820312 88.625 272.25 C 89.199219 271.675781 89.796875 271.132812 90.425781 270.621094 C 91.050781 270.109375 91.699219 269.625 92.371094 269.175781 C 93.046875 268.726562 93.738281 268.3125 94.453125 267.929688 C 95.167969 267.546875 95.898438 267.203125 96.648438 266.890625 C 97.394531 266.582031 98.15625 266.308594 98.929688 266.074219 C 99.707031 265.839844 100.488281 265.644531 101.285156 265.484375 C 102.078125 265.328125 102.878906 265.210938 103.683594 265.128906 C 104.488281 265.050781 105.296875 265.011719 106.105469 265.011719 L 106.652344 265.011719 C 107.460938 265.011719 108.269531 265.050781 109.074219 265.128906 C 109.878906 265.210938 110.679688 265.328125 111.472656 265.484375 C 112.269531 265.644531 113.050781 265.839844 113.828125 266.074219 C 114.601562 266.308594 115.363281 266.582031 116.109375 266.890625 C 116.859375 267.203125 117.589844 267.546875 118.304688 267.929688 C 119.019531 268.3125 119.710938 268.726562 120.386719 269.175781 C 121.058594 269.625 121.707031 270.109375 122.332031 270.621094 C 122.960938 271.132812 123.558594 271.675781 124.132812 272.25 C 124.703125 272.820312 125.246094 273.421875 125.761719 274.046875 C 126.273438 274.671875 126.753906 275.320312 127.207031 275.996094 C 127.65625 276.667969 128.070312 277.363281 128.453125 278.074219 C 128.835938 278.789062 129.179688 279.519531 129.488281 280.269531 C 129.800781 281.015625 130.070312 281.777344 130.308594 282.550781 C 130.542969 283.324219 130.738281 284.109375 130.898438 284.902344 C 131.054688 285.699219 131.171875 286.496094 131.253906 287.304688 C 131.332031 288.109375 131.371094 288.917969 131.371094 289.726562 C 131.371094 290.632812 131.28125 291.53125 131.105469 292.421875 C 130.929688 293.3125 130.667969 294.179688 130.320312 295.015625 C 129.972656 295.855469 129.546875 296.652344 129.039062 297.40625 C 128.535156 298.164062 127.964844 298.859375 127.320312 299.503906 C 126.679688 300.144531 125.980469 300.71875 125.226562 301.222656 C 124.46875 301.726562 123.671875 302.152344 122.832031 302.5 C 121.996094 302.847656 121.128906 303.109375 120.238281 303.289062 C 119.347656 303.464844 118.449219 303.554688 117.542969 303.554688 Z M 117.542969 303.554688 " fill-opacity="1" fill-rule="nonzero"/><path fill="#a0a0a0" d="M 91.894531 267.679688 L 69.625 267.679688 C 68.71875 267.679688 67.816406 267.589844 66.925781 267.414062 C 66.035156 267.234375 65.171875 266.972656 64.332031 266.625 C 63.492188 266.277344 62.695312 265.851562 61.941406 265.347656 C 61.1875 264.84375 60.488281 264.269531 59.84375 263.628906 C 59.203125 262.988281 58.628906 262.289062 58.125 261.535156 C 57.621094 260.777344 57.195312 259.980469 56.847656 259.144531 C 56.5 258.304688 56.238281 257.4375 56.058594 256.550781 C 55.882812 255.660156 55.792969 254.757812 55.792969 253.851562 C 55.792969 253.042969 55.835938 252.234375 55.914062 251.429688 C 55.992188 250.625 56.113281 249.828125 56.269531 249.035156 C 56.429688 248.242188 56.625 247.457031 56.859375 246.683594 C 57.09375 245.910156 57.367188 245.148438 57.675781 244.402344 C 57.988281 243.65625 58.332031 242.925781 58.714844 242.210938 C 59.097656 241.5 59.511719 240.804688 59.964844 240.132812 C 60.414062 239.460938 60.894531 238.8125 61.410156 238.1875 C 61.921875 237.5625 62.464844 236.964844 63.039062 236.394531 C 63.609375 235.824219 64.210938 235.28125 64.835938 234.769531 C 65.460938 234.257812 66.113281 233.777344 66.785156 233.328125 C 67.457031 232.878906 68.152344 232.464844 68.867188 232.085938 C 69.582031 231.707031 70.3125 231.359375 71.058594 231.050781 C 71.808594 230.746094 72.566406 230.472656 73.34375 230.238281 C 74.117188 230.007812 74.902344 229.8125 75.695312 229.65625 C 76.488281 229.5 77.289062 229.382812 78.09375 229.304688 C 78.898438 229.226562 79.707031 229.1875 80.515625 229.191406 L 81.058594 229.191406 C 81.867188 229.191406 82.671875 229.230469 83.476562 229.308594 C 84.28125 229.390625 85.078125 229.507812 85.871094 229.664062 C 86.664062 229.824219 87.445312 230.019531 88.21875 230.253906 C 88.992188 230.488281 89.753906 230.757812 90.5 231.066406 C 91.246094 231.378906 91.972656 231.722656 92.6875 232.101562 C 93.398438 232.484375 94.089844 232.898438 94.761719 233.347656 C 95.433594 233.796875 96.082031 234.277344 96.707031 234.789062 C 97.332031 235.300781 97.929688 235.84375 98.5 236.414062 C 99.070312 236.984375 99.613281 237.582031 100.125 238.207031 C 100.640625 238.832031 101.121094 239.480469 101.570312 240.152344 C 102.015625 240.824219 102.433594 241.515625 102.8125 242.226562 C 103.195312 242.9375 103.539062 243.667969 103.847656 244.414062 C 104.15625 245.160156 104.429688 245.921875 104.664062 246.691406 C 104.898438 247.464844 105.09375 248.25 105.25 249.039062 C 105.410156 249.832031 105.527344 250.628906 105.605469 251.433594 C 105.6875 252.238281 105.726562 253.042969 105.726562 253.851562 C 105.726562 254.757812 105.636719 255.660156 105.460938 256.550781 C 105.28125 257.4375 105.019531 258.304688 104.671875 259.144531 C 104.324219 259.980469 103.898438 260.777344 103.394531 261.535156 C 102.890625 262.289062 102.316406 262.988281 101.675781 263.628906 C 101.03125 264.269531 100.332031 264.84375 99.578125 265.347656 C 98.824219 265.851562 98.027344 266.277344 97.1875 266.625 C 96.347656 266.972656 95.484375 267.234375 94.59375 267.414062 C 93.703125 267.589844 92.804688 267.679688 91.894531 267.679688 Z M 91.894531 267.679688 " fill-opacity="1" fill-rule="nonzero"/><path fill="#a0a0a0" d="M 279.585938 304.804688 L 257.261719 304.804688 C 256.351562 304.804688 255.453125 304.714844 254.5625 304.539062 C 253.671875 304.363281 252.808594 304.101562 251.96875 303.753906 C 251.128906 303.40625 250.332031 302.980469 249.578125 302.476562 C 248.820312 301.96875 248.125 301.398438 247.480469 300.753906 C 246.839844 300.113281 246.265625 299.414062 245.761719 298.660156 C 245.257812 297.90625 244.832031 297.109375 244.484375 296.269531 C 244.136719 295.429688 243.875 294.566406 243.695312 293.675781 C 243.519531 292.785156 243.429688 291.886719 243.429688 290.976562 C 243.433594 290.167969 243.472656 289.363281 243.554688 288.558594 C 243.636719 287.753906 243.753906 286.957031 243.914062 286.164062 C 244.074219 285.371094 244.269531 284.589844 244.507812 283.816406 C 244.742188 283.042969 245.015625 282.28125 245.328125 281.535156 C 245.636719 280.789062 245.984375 280.0625 246.367188 279.347656 C 246.75 278.636719 247.164062 277.945312 247.613281 277.273438 C 248.066406 276.601562 248.546875 275.953125 249.0625 275.328125 C 249.574219 274.707031 250.117188 274.109375 250.691406 273.539062 C 251.261719 272.964844 251.859375 272.425781 252.488281 271.914062 C 253.113281 271.398438 253.761719 270.921875 254.433594 270.472656 C 255.105469 270.023438 255.800781 269.609375 256.511719 269.226562 C 257.226562 268.847656 257.957031 268.503906 258.703125 268.195312 C 259.449219 267.886719 260.210938 267.613281 260.984375 267.378906 C 261.757812 267.144531 262.542969 266.949219 263.335938 266.792969 C 264.128906 266.632812 264.925781 266.515625 265.730469 266.4375 C 266.535156 266.355469 267.34375 266.316406 268.152344 266.316406 L 268.695312 266.316406 C 269.503906 266.316406 270.3125 266.355469 271.117188 266.429688 C 271.921875 266.507812 272.722656 266.625 273.515625 266.78125 C 274.308594 266.9375 275.09375 267.132812 275.867188 267.367188 C 276.640625 267.601562 277.402344 267.871094 278.152344 268.179688 C 278.898438 268.488281 279.628906 268.832031 280.34375 269.210938 C 281.058594 269.59375 281.75 270.007812 282.425781 270.453125 C 283.097656 270.902344 283.746094 271.382812 284.375 271.894531 C 285 272.40625 285.597656 272.949219 286.171875 273.519531 C 286.746094 274.09375 287.289062 274.691406 287.800781 275.316406 C 288.316406 275.941406 288.796875 276.589844 289.246094 277.261719 C 289.699219 277.933594 290.113281 278.625 290.496094 279.339844 C 290.875 280.050781 291.222656 280.78125 291.53125 281.527344 C 291.84375 282.273438 292.117188 283.035156 292.351562 283.808594 C 292.585938 284.582031 292.78125 285.367188 292.941406 286.160156 C 293.097656 286.953125 293.21875 287.753906 293.296875 288.558594 C 293.375 289.363281 293.414062 290.167969 293.414062 290.976562 C 293.414062 291.886719 293.328125 292.785156 293.148438 293.675781 C 292.972656 294.566406 292.710938 295.429688 292.363281 296.269531 C 292.015625 297.109375 291.589844 297.90625 291.085938 298.660156 C 290.582031 299.414062 290.007812 300.113281 289.363281 300.753906 C 288.722656 301.398438 288.023438 301.96875 287.269531 302.476562 C 286.515625 302.980469 285.71875 303.40625 284.878906 303.753906 C 284.039062 304.101562 283.175781 304.363281 282.285156 304.539062 C 281.394531 304.714844 280.492188 304.804688 279.585938 304.804688 Z M 279.585938 304.804688 " fill-opacity="1" fill-rule="nonzero"/><g clip-path="url(#1356076553)"><path fill="#a0a0a0" d="M 329.515625 304.804688 L 307.191406 304.804688 C 306.285156 304.804688 305.382812 304.714844 304.492188 304.539062 C 303.601562 304.363281 302.738281 304.101562 301.898438 303.753906 C 301.058594 303.40625 300.261719 302.980469 299.507812 302.476562 C 298.753906 301.96875 298.054688 301.398438 297.410156 300.753906 C 296.769531 300.113281 296.195312 299.414062 295.691406 298.660156 C 295.1875 297.90625 294.761719 297.109375 294.414062 296.269531 C 294.066406 295.429688 293.804688 294.566406 293.625 293.675781 C 293.449219 292.785156 293.359375 291.886719 293.359375 290.976562 C 293.359375 290.167969 293.402344 289.363281 293.480469 288.558594 C 293.558594 287.753906 293.679688 286.953125 293.835938 286.160156 C 293.996094 285.367188 294.191406 284.582031 294.425781 283.808594 C 294.660156 283.035156 294.933594 282.273438 295.242188 281.527344 C 295.554688 280.78125 295.898438 280.050781 296.28125 279.339844 C 296.664062 278.625 297.078125 277.933594 297.53125 277.261719 C 297.980469 276.589844 298.460938 275.941406 298.976562 275.316406 C 299.488281 274.691406 300.03125 274.09375 300.605469 273.519531 C 301.175781 272.949219 301.777344 272.40625 302.402344 271.894531 C 303.027344 271.382812 303.679688 270.902344 304.351562 270.453125 C 305.023438 270.007812 305.71875 269.59375 306.433594 269.210938 C 307.148438 268.832031 307.878906 268.488281 308.625 268.179688 C 309.375 267.871094 310.132812 267.601562 310.910156 267.367188 C 311.683594 267.132812 312.46875 266.9375 313.261719 266.78125 C 314.054688 266.625 314.855469 266.507812 315.660156 266.429688 C 316.464844 266.355469 317.273438 266.316406 318.082031 266.316406 L 318.625 266.316406 C 319.433594 266.316406 320.242188 266.355469 321.046875 266.429688 C 321.851562 266.507812 322.652344 266.625 323.445312 266.78125 C 324.238281 266.9375 325.023438 267.132812 325.796875 267.367188 C 326.574219 267.601562 327.335938 267.871094 328.082031 268.179688 C 328.828125 268.488281 329.5625 268.832031 330.273438 269.210938 C 330.988281 269.59375 331.683594 270.007812 332.355469 270.453125 C 333.027344 270.902344 333.679688 271.382812 334.304688 271.894531 C 334.929688 272.40625 335.53125 272.949219 336.101562 273.519531 C 336.675781 274.09375 337.21875 274.691406 337.730469 275.316406 C 338.246094 275.941406 338.726562 276.589844 339.179688 277.261719 C 339.628906 277.933594 340.042969 278.625 340.425781 279.339844 C 340.808594 280.050781 341.152344 280.78125 341.464844 281.527344 C 341.773438 282.273438 342.046875 283.035156 342.28125 283.808594 C 342.515625 284.582031 342.714844 285.367188 342.871094 286.160156 C 343.027344 286.953125 343.148438 287.753906 343.226562 288.558594 C 343.308594 289.363281 343.347656 290.167969 343.347656 290.976562 C 343.347656 291.886719 343.257812 292.785156 343.082031 293.675781 C 342.902344 294.566406 342.640625 295.429688 342.292969 296.269531 C 341.945312 297.109375 341.519531 297.90625 341.015625 298.660156 C 340.511719 299.414062 339.9375 300.113281 339.296875 300.753906 C 338.652344 301.398438 337.953125 301.96875 337.199219 302.476562 C 336.445312 302.980469 335.648438 303.40625 334.808594 303.753906 C 333.96875 304.101562 333.105469 304.363281 332.214844 304.539062 C 331.324219 304.714844 330.425781 304.804688 329.515625 304.804688 Z M 329.515625 304.804688 " fill-opacity="1" fill-rule="nonzero"/></g><path fill="#a0a0a0" d="M 303.925781 269.09375 L 281.65625 269.09375 C 280.746094 269.09375 279.847656 269.003906 278.957031 268.828125 C 278.066406 268.652344 277.199219 268.390625 276.363281 268.042969 C 275.523438 267.695312 274.726562 267.269531 273.96875 266.761719 C 273.214844 266.257812 272.515625 265.6875 271.875 265.042969 C 271.234375 264.402344 270.660156 263.703125 270.15625 262.949219 C 269.648438 262.195312 269.222656 261.398438 268.875 260.558594 C 268.527344 259.71875 268.265625 258.855469 268.089844 257.964844 C 267.914062 257.074219 267.824219 256.175781 267.824219 255.265625 C 267.820312 254.457031 267.859375 253.652344 267.9375 252.847656 C 268.015625 252.039062 268.132812 251.242188 268.289062 250.449219 C 268.445312 249.65625 268.640625 248.871094 268.875 248.097656 C 269.105469 247.320312 269.378906 246.5625 269.6875 245.8125 C 269.996094 245.066406 270.339844 244.335938 270.71875 243.621094 C 271.097656 242.90625 271.511719 242.214844 271.960938 241.539062 C 272.410156 240.867188 272.890625 240.21875 273.402344 239.589844 C 273.914062 238.964844 274.457031 238.367188 275.027344 237.792969 C 275.601562 237.222656 276.199219 236.679688 276.824219 236.164062 C 277.449219 235.652344 278.097656 235.167969 278.769531 234.71875 C 279.441406 234.269531 280.132812 233.855469 280.847656 233.472656 C 281.5625 233.089844 282.289062 232.746094 283.039062 232.433594 C 283.785156 232.125 284.546875 231.851562 285.320312 231.617188 C 286.09375 231.382812 286.878906 231.183594 287.671875 231.027344 C 288.464844 230.871094 289.265625 230.75 290.070312 230.671875 C 290.875 230.589844 291.679688 230.550781 292.488281 230.550781 L 293.035156 230.550781 C 293.84375 230.550781 294.652344 230.589844 295.457031 230.671875 C 296.261719 230.75 297.0625 230.867188 297.855469 231.027344 C 298.652344 231.183594 299.4375 231.382812 300.210938 231.617188 C 300.984375 231.851562 301.746094 232.125 302.496094 232.433594 C 303.242188 232.742188 303.972656 233.089844 304.6875 233.46875 C 305.402344 233.851562 306.09375 234.265625 306.769531 234.71875 C 307.441406 235.167969 308.089844 235.648438 308.71875 236.160156 C 309.34375 236.675781 309.941406 237.21875 310.515625 237.789062 C 311.085938 238.363281 311.628906 238.960938 312.144531 239.589844 C 312.65625 240.214844 313.140625 240.863281 313.589844 241.535156 C 314.039062 242.210938 314.453125 242.902344 314.835938 243.617188 C 315.21875 244.332031 315.5625 245.0625 315.875 245.808594 C 316.183594 246.554688 316.457031 247.316406 316.691406 248.09375 C 316.925781 248.867188 317.121094 249.652344 317.28125 250.445312 C 317.4375 251.238281 317.554688 252.039062 317.636719 252.84375 C 317.714844 253.648438 317.753906 254.457031 317.753906 255.265625 C 317.753906 256.175781 317.667969 257.074219 317.488281 257.964844 C 317.3125 258.855469 317.050781 259.71875 316.703125 260.558594 C 316.355469 261.398438 315.929688 262.195312 315.425781 262.949219 C 314.917969 263.703125 314.347656 264.402344 313.703125 265.042969 C 313.0625 265.6875 312.363281 266.257812 311.609375 266.761719 C 310.851562 267.269531 310.054688 267.695312 309.21875 268.042969 C 308.378906 268.390625 307.511719 268.652344 306.621094 268.828125 C 305.730469 269.003906 304.832031 269.09375 303.925781 269.09375 Z M 303.925781 269.09375 " fill-opacity="1" fill-rule="nonzero"/><path fill="#d9d9d9" d="M 175.28125 252.445312 C 174.546875 252.445312 174.058594 252.203125 173.570312 251.710938 L 163.800781 241.941406 C 162.820312 240.964844 162.820312 239.5 163.800781 238.523438 L 173.570312 228.75 C 174.546875 227.773438 176.011719 227.773438 176.992188 228.75 C 177.96875 229.726562 177.96875 231.195312 176.992188 232.171875 L 168.929688 240.230469 L 176.992188 248.292969 C 177.96875 249.269531 177.96875 250.734375 176.992188 251.710938 C 176.5 252.203125 176.011719 252.445312 175.28125 252.445312 Z M 175.28125 252.445312 " fill-opacity="1" fill-rule="nonzero"/><path fill="#d9d9d9" d="M 199.707031 252.445312 C 198.976562 252.445312 198.488281 252.203125 198 251.710938 C 197.019531 250.734375 197.019531 249.269531 198 248.292969 L 206.058594 240.230469 L 198 232.171875 C 197.019531 231.195312 197.019531 229.726562 198 228.75 C 198.976562 227.773438 200.441406 227.773438 201.417969 228.75 L 211.1875 238.523438 C 212.167969 239.5 212.167969 240.964844 211.1875 241.941406 L 201.417969 251.710938 C 200.929688 252.203125 200.441406 252.445312 199.707031 252.445312 Z M 199.707031 252.445312 " fill-opacity="1" fill-rule="nonzero"/><g clip-path="url(#b977372f63)"><path fill="#d9d9d9" d="M 182.609375 257.332031 C 182.363281 257.332031 182.121094 257.332031 181.875 257.085938 C 180.65625 256.597656 179.921875 255.375 180.410156 253.910156 L 190.179688 224.597656 C 190.671875 223.375 191.890625 222.644531 193.355469 223.132812 C 194.578125 223.621094 195.3125 224.84375 194.824219 226.308594 L 185.050781 255.621094 C 184.5625 256.597656 183.585938 257.332031 182.609375 257.332031 Z M 182.609375 257.332031 " fill-opacity="1" fill-rule="nonzero"/></g></svg>